<svg width="25" height="26" viewBox="0 0 25 26" fill="none" xmlns="http://www.w3.org/2000/svg">
<g clip-path="url(#clip0_10090_19375)">
<path d="M22.5884 19.9826C22.2103 20.856 21.7628 21.66 21.2443 22.3992C20.5375 23.4069 19.9588 24.1044 19.5128 24.4917C18.8215 25.1275 18.0808 25.4531 17.2876 25.4716C16.7182 25.4716 16.0314 25.3096 15.2321 24.9809C14.4301 24.6537 13.6931 24.4917 13.0192 24.4917C12.3124 24.4917 11.5544 24.6537 10.7436 24.9809C9.93163 25.3096 9.27748 25.4809 8.77734 25.4979C8.01672 25.5303 7.25856 25.1954 6.50179 24.4917C6.01878 24.0704 5.41463 23.3482 4.69089 22.3251C3.91437 21.2326 3.27596 19.9656 2.77582 18.5212C2.24019 16.9611 1.97168 15.4503 1.97168 13.9877C1.97168 12.3123 2.33371 10.8673 3.05884 9.65636C3.62873 8.68371 4.38689 7.91644 5.33578 7.35319C6.28467 6.78994 7.30995 6.50291 8.41408 6.48454C9.01823 6.48454 9.81049 6.67142 10.795 7.03869C11.7768 7.4072 12.4072 7.59408 12.6836 7.59408C12.8902 7.59408 13.5905 7.37557 14.7776 6.93993C15.9003 6.53593 16.8478 6.36865 17.624 6.43455C19.7273 6.60429 21.3075 7.43343 22.3584 8.92722C20.4773 10.067 19.5468 11.6634 19.5653 13.7113C19.5823 15.3065 20.161 16.6339 21.2983 17.6879C21.8137 18.1771 22.3893 18.5552 23.0297 18.8237C22.8908 19.2264 22.7442 19.6122 22.5884 19.9826ZM17.7644 1.00014C17.7644 2.25043 17.3076 3.41782 16.3972 4.49834C15.2984 5.78287 13.9695 6.52513 12.5283 6.408C12.5099 6.25801 12.4993 6.10014 12.4993 5.93425C12.4993 4.73398 13.0218 3.44945 13.9497 2.39917C14.413 1.8674 15.0022 1.42524 15.7166 1.07252C16.4296 0.725057 17.1039 0.532905 17.7382 0.5C17.7567 0.667144 17.7644 0.834298 17.7644 1.00013V1.00014Z" fill="black"/>
</g>
<defs>
<clipPath id="clip0_10090_19375">
<rect width="25" height="25" fill="white" transform="translate(0 0.5)"/>
</clipPath>
</defs>
</svg>
